Patient4_TMGait_0pt4_03_left_02_EMG.mot
version=1
nRows=36
nColumns=33
inDegrees=no
endheader
time	1LAddLong	2LGlutMax	3LGlutMed	4LIliopsoas	5LSemiMemb	6LBicFemLong	7LRecFem	8LVastMed	9LVastLat	10LGasMed	11LTibAnt	12lTibPost	13LPeroneusLong	14LSol	15LExtDigLong	16LFlexDigLong	17RAddLong	18RGlutMax	19RGlutMed	20RIliopsoas	21RSemiMemb	22RBicFemLong	23RRecFem	24RVastMed	25RVastLat	26RGasMed	27RTibAnt	28RTibPost	29RPeroneusLong	30RSol	31RExtDigLong	32RFlexDigLong
3.538	0.012817	-0.007629	0.034332	0.001068	0.009308	0.015717	-0.024567	-0.000458	0.099487	-0.023346	-0.033417	-0.017853	0.089264	-0.067444	0.044403	-0.000305	-0.000763	-0.02243	0.12116	-0.1239	0.12085	0.007324	0.22537	-0.018158	-0.11673	-0.016327	0.003967	-0.019836	-0.31967	-0.15366	0.001221	-0.016632
3.539	0.00412	-0.039978	-0.034637	0.008698	-0.009766	0.016174	-0.027771	0.00412	0.090179	-0.017548	-0.032806	0.000305	0.077515	-0.064697	0.043182	-0.002136	-0.001373	-0.078583	0.43274	-0.094757	0.10834	0.004272	0.21164	-0.023956	-0.092316	0.00473	-0.75501	-0.028381	-0.095673	0.04715	0.002747	-0.00412
3.54	0.003204	-0.027771	0.026093	0.008545	-0.003662	0.018158	-0.028992	0.006104	0.078278	-0.018921	0.010529	-0.015869	0.10986	-0.060425	0.034332	-0.004578	-0.011139	-0.097961	0.19196	-0.068054	0.077057	0.021667	0.13641	-0.026245	-0.12451	0.011749	-0.39642	-0.06134	-0.000458	0.18021	0.004425	0.00061
3.541	-0.00412	-0.03067	0.027924	0.010223	-0.04303	0.036316	-0.049896	0.003357	0.077209	-0.024567	0.095367	-0.02121	0.099487	-0.058899	0.047913	-0.001678	-0.009918	-0.13626	-0.35339	0.09079	0.072174	0.007172	-0.090942	-0.058136	-0.098877	0.014954	0.023956	0.043182	0.040588	0.54962	0.002899	-0.001984
3.542	-0.00946	-0.06134	0.039825	0.005798	-0.045929	0.008392	-0.019836	0.002441	0.095215	-0.065308	0.031891	-0.010376	0.071259	-0.049438	0.049133	-0.001831	0.004883	-0.11765	-0.50079	0.20798	0.063019	0.011749	-0.25452	-0.049286	-0.06424	0.006104	-0.22888	0.076294	0.20554	0.45761	0.001373	0.002747
3.543	-0.003815	-0.045624	0.012665	-0.002289	-0.063934	0.002594	-0.051117	0.004425	0.075073	-0.010986	-0.001068	-0.005951	0.009308	-0.06073	0.044098	0.003204	0.011292	-0.02533	-0.15305	0.13901	0.058746	-0.011292	-0.053711	0.014191	-0.048065	0.006104	0.17349	0.014648	0.17914	0.29968	0.001831	-0.001373
3.544	0.014038	-0.053558	0.03479	-0.003204	-0.003662	-0.029907	-0.047455	-0.003204	0.068512	-0.054016	0.004272	0.000458	-0.037537	-0.06134	0.13458	-0.008545	0.009918	-0.06546	0.025482	0.011139	0.042877	-0.016785	-0.10574	-0.04776	0.021973	-0.013275	0.36499	-0.000153	0.059967	0.2063	0.000153	-0.003052
3.545	0.014191	-0.070038	0.041199	0.013275	0.052185	-0.025482	-0.052032	0.006866	0.056763	-0.027161	0.002747	0.000305	0.002594	-0.0737	0.081635	-0.001526	0.011597	-0.066986	-0.33279	-0.047302	0.041199	-0.028229	-0.10269	-0.091553	0.077057	-0.0177	0.36148	-0.001221	-0.003052	-0.18448	0.002899	-0.016479
3.546	0.00473	-0.059662	0.018158	0.028534	0.023804	-0.029297	-0.030212	0.006866	0.060425	-0.025787	-0.004272	-0.003052	0.031128	-0.066071	-0.003967	-0.007477	0.016022	-0.045471	-0.20828	-0.036316	0.031738	-0.0383	-0.073853	-0.0914	0.090637	-0.003662	0.49713	-0.001526	0.016479	-0.39047	0.003204	-0.010834
3.547	0.010986	-0.057068	-0.00885	0.019226	0.005035	-0.054016	-0.052032	0.006409	0.059357	-0.03006	0.032196	-0.000458	0.040283	-0.080872	-0.011292	-0.007019	0.023041	-0.1059	-0.2713	-0.032196	0.019226	-0.06485	0.052338	-0.057373	0.016785	0.001221	-0.67169	-0.002136	0.19211	-0.32379	-0.001068	-0.010071
3.548	0.007324	-0.059509	-0.040131	-0.000153	0.033417	-0.063934	-0.049438	0.00824	0.06485	-0.044403	0.029907	-0.000916	0.009003	-0.066528	-0.019989	-0.004578	0.00885	-0.14557	-0.19913	-0.037384	0.026703	-0.004578	-0.11368	0.010223	0.009308	0.000305	-0.72205	-0.005493	0.2359	-0.11276	0.002899	-0.0177
3.549	0.019226	-0.02594	-0.041656	0.000458	0.051575	-0.027313	-0.05661	0.000763	0.063934	-0.050354	0.010376	0.001373	-0.014038	-0.045776	-0.00412	-0.000305	0.010529	-0.096741	-0.095062	-0.060577	0.027008	-0.026855	-0.1207	-0.011597	0.047607	0.001068	0.023651	-0.009155	0.036163	0.02533	0	-0.018158
3.55	0.013275	-0.034485	-0.035858	-0.005341	0.032196	-0.021667	-0.060272	0.021667	0.06546	-0.027161	0.004425	-0.002136	0.002899	-0.053711	0.006714	-0.011139	0.019531	-0.11414	-0.23468	-0.054169	0.020752	-0.009155	-0.005493	-0.03006	0.032806	-0.011292	0.13825	-0.009003	0.024414	0.040436	0.001373	-0.018463
3.551	0.01236	-0.030212	-0.034943	0.009003	0.027161	0.013123	-0.061646	0.008698	0.075684	-0.023346	-0.007019	-0.007477	0.027771	-0.06073	0.00473	-0.003967	0.020142	-0.13351	-0.19211	-0.065155	0.029602	-0.015564	0.026703	-0.033417	0.003662	0.001678	-0.094147	-0.003662	0.018005	0.093079	-0.000458	-0.007172
3.552	0.018311	-0.045929	-0.085297	0.00351	0.01297	0.007019	-0.071564	-0.009766	0.082092	-0.029449	0.011749	-0.003052	0.05127	-0.029297	0.020142	-0.005798	0.018921	-0.10086	-0.11246	-0.063934	0.02243	-0.001373	0.054169	-0.025787	-0.033264	0.001526	-0.4364	-0.004883	0.031433	0.061798	0.001221	-0.024261
3.553	0.014496	-0.074768	-0.093689	0.004272	0.016632	-0.024261	-0.068054	-0.003357	0.04776	-0.024567	0.028687	-0.000763	0.045929	-0.026855	-0.003357	0.003052	0.018921	-0.10376	-0.079346	-0.019379	0.030365	-0.011902	-0.009308	-0.024261	-0.013885	-0.002899	-0.29663	-0.00824	-0.028687	-0.16159	0.007019	-0.021667
3.554	0.010376	-0.042114	-0.13367	0.005951	0.03418	-0.047913	-0.083008	-0.000153	0.053253	-0.019684	-0.001068	-0.000458	0.036774	-0.12238	0.004578	-0.007172	0.016937	-0.09903	-0.13428	0	0.060272	-0.007019	-0.019836	-0.058136	-0.026398	-0.000153	-0.1445	-0.009003	-0.074768	-0.14984	0.001373	-0.019989
3.555	0.014496	-0.073395	-0.13382	0.007172	0.023804	-0.033417	-0.069733	0.002136	0.068817	-0.022278	0.025177	0.001373	0.02594	-0.13001	0.007629	-0.001678	0.012207	-0.078888	0.11917	-0.019226	0.08667	0.015411	-0.057068	-0.13473	-0.014954	0.003052	-0.065918	-0.011292	-0.099945	-0.09964	0.000153	-0.018311
3.556	0.014801	-0.04364	-0.042419	0.009766	0.013275	-0.01236	-0.07309	0.005035	0.056305	-0.020752	0.020752	0.010681	0.023346	-0.089569	0.014954	-0.003357	0.007629	-0.045013	0.18677	0.001984	0.046692	0.027771	-0.002594	-0.12924	-0.019684	-0.001526	-0.014648	-0.012512	-0.074005	0.056915	0.002899	-0.013123
3.557	0.013428	-0.054474	-0.12848	0.009308	0.018616	-0.016937	-0.084076	0.002594	0.044708	-0.025024	0.010529	0.001068	0.02533	-0.059662	0.024109	-0.00885	0.004272	-0.060425	-0.19898	-0.003815	-0.07782	0.06134	0.089874	-0.031586	-0.027313	-0.014954	0.039825	-0.009613	-0.16434	0.3447	0.001678	-0.018921
3.558	0.00824	-0.088806	0.030365	-0.011902	0.001678	0.001831	-0.067444	0.007477	0.027313	-0.027161	0.003662	-0.005951	0.017853	-0.053711	-0.001221	-0.007477	-0.004272	-0.051575	-0.34729	-0.031738	-0.04303	0.006409	0.10742	0.032501	0.02243	-0.019531	0.074463	-0.010529	-0.10849	0.18112	0.001678	-0.015106
3.559	-0.003204	-0.087585	0.066071	0.005035	-0.00351	0.008545	-0.06958	0.002441	0.023956	-0.024719	0.015259	-0.001678	0.014038	-0.067444	0.002594	0.000763	0.00473	-0.054474	-0.45487	-0.017395	0.042267	-0.044098	0.007782	0.10696	0.079651	-0.015106	0.014191	-0.018005	0.050354	-0.45639	0.002594	-0.014648
3.56	0.013428	-0.071869	0.15274	0.005646	-0.001373	0.008392	-0.083618	0.002747	0.024872	-0.025177	0.033569	0.002441	0.001678	-0.062714	0.008698	0.005493	0.010529	-0.093079	-0.26123	-0.003357	0.02533	-0.032043	-0.14923	-0.074921	-0.021973	-0.0177	0.066223	-0.013123	0.066376	-0.64987	0.002441	-0.012512
3.561	0.012054	-0.071564	0.092163	0.007629	-0.01358	-0.016174	-0.076599	0.030975	0.029602	-0.027771	0.013428	-0.005951	0.006714	-0.083008	-0.009613	-0.002289	0.013733	-0.060272	0.13229	0.026245	0.023651	0.001221	-0.10162	-0.068665	-0.06897	0.005188	0.085754	-0.00351	0.24017	-0.19318	0.006714	-0.008392
3.562	0.014038	-0.06485	0.078735	0.003204	0.000458	-0.047302	-0.048218	0.055389	0.022888	-0.028381	0.031891	-0.000916	-0.007782	-0.073547	0.000153	0.013733	0.010681	-0.037537	0.29816	-0.009766	0.026703	0.010071	0.061188	-0.005493	-0.059204	-0.003967	0.085449	-0.001678	0.14374	0.037842	-0.002136	-0.019379
3.563	0.013733	-0.083466	0.041046	0.000153	0.008392	0.008698	-0.045471	-0.009766	0.016022	-0.012817	0.013123	0.001831	0	-0.077515	0.002289	0.001373	0.016174	-0.047607	1.0004	0.00412	0.02533	0.008545	0.084839	-0.031281	-0.065308	-0.003662	0.10056	-0.008087	0.0737	0.15747	0.003204	-0.017853
3.564	-0.002136	-0.071411	0.007477	0.016785	0	0.020752	-0.046844	-0.001373	0.02121	-0.024109	0.015106	0.002594	-0.014038	-0.07309	0.009308	-0.001526	0.015869	-0.15991	0.95505	-0.013275	0.032806	0.01236	0.087738	-0.017242	-0.033417	0.00824	0.096741	-0.021362	-0.029755	0.40955	0.001068	-0.010223
3.565	-0.011597	-0.11902	-0.031738	0.017853	-0.018158	0.046692	-0.050201	0.007324	0.017548	-0.031891	-0.065765	-0.00351	-0.024872	-0.072174	0.016632	0.002136	0.013123	-0.13321	0.17441	0.004425	0.03067	0.011902	0.10498	-0.048828	0.012207	0.007782	0.14175	-0.001373	-0.15976	0.1384	0.001068	-0.00412
3.566	-0.006409	-0.1033	0.027161	0.015259	-0.056458	0.030518	-0.053558	0.006561	0.015259	-0.032501	-0.096588	0.003967	-0.029907	-0.091248	0.003357	0.001678	0.007019	-0.13718	-0.77682	0.017853	0.015717	0.015869	0.079956	-0.0354	0.011902	-0.027924	0.038452	-0.004425	-0.13947	-0.20508	0.000305	-0.017395
3.567	-0.00061	-0.057831	-0.033264	0.00351	-0.024719	-0.009918	-0.070343	0.007782	0.023499	-0.053558	-0.057526	0.002594	0.013275	-0.079346	-0.032959	-0.002747	0.008698	-0.1532	-1.0197	-0.01358	0.029907	0.017853	-0.12863	-0.068817	-0.068817	-0.0354	-0.12817	-0.06897	0.015717	-0.28854	0.00061	-0.019073
3.568	0.005188	-0.0914	-0.007477	-0.000305	-0.00412	-0.063782	-0.054474	0.003967	0.030823	-0.046387	0.024261	0.006714	0.007782	-0.084534	-0.002441	-0.006561	0.012817	-0.11429	-0.4541	-0.001678	0.031281	0.010529	-0.076141	-0.092773	-0.12116	0.010071	-0.009918	0.039673	0.08606	-0.22781	0.001373	-0.009613
3.569	0.022278	-0.14297	-0.063171	0.006104	-0.016327	-0.065002	-0.059662	0.001221	0.015259	-0.058746	0.13672	-0.003204	0.014038	-0.097198	-0.019989	-0.001068	0.010986	-0.18204	-0.097046	0.032806	0.024109	-0.008087	0.19699	-0.2533	-0.12619	0.005951	0.22217	0.041199	0.078888	0.33844	0	-0.011902
3.57	0.024719	-0.15488	-0.10269	0.00824	-0.02655	-0.003204	-0.058441	-0.00473	0.016479	-0.068207	0.10178	-0.001068	0.039063	-0.071716	-0.00412	-0.00412	0.02243	-0.18112	-0.32852	0.057831	0.016327	-0.002136	0.46371	-0.32623	-0.19821	0.00473	0.43106	0.010986	-0.089569	0.22858	0.004272	-0.017853
3.571	0.021362	-0.12039	-0.16495	0.00061	0.010223	0.050507	-0.061951	0.00061	0.006256	-0.041351	0.097046	0.000763	-0.005798	-0.072021	0.002136	0.007019	0.013275	-0.13397	-0.21545	0.063477	0.033722	0.007019	0.42557	-0.19714	-0.21088	0.002136	0.62286	-0.002594	-0.36697	-0.019531	0.002899	-0.019989
3.572	0.019073	-0.10956	-0.17136	0.006714	0.039215	0.048676	-0.070038	0.006256	0.014954	-0.029297	0.13107	0.000763	-0.053864	-0.064697	0.003357	-0.004425	0.005188	-0.22247	0.36743	0.000153	0.038757	0.030823	-0.036469	-0.023041	-0.1265	-0.001678	0.29755	-0.004425	-0.22369	-0.12253	0.005341	-0.009155
3.573	0.015411	-0.10147	-0.13779	0.008087	0.025787	0.028381	-0.061798	0.006561	0.017548	-0.025024	0.10574	0.007172	-0.031128	-0.071716	-0.010376	-0.004272	-0.014191	-0.20264	-0.061951	-0.050812	0.046387	0.035553	-0.39139	0.02533	0.089417	0.005188	-0.42145	-0.016022	0.009766	-0.084076	0.00473	-0.005646
